# xmcd
#
# Track frame offsets: 
#        183
#        11265
#        36860
#        59140
#        83973
#        111795
#        125860
#        141475
#        156380
#        177385
#        197353
#        209710
#        227005
#        241535
#        257108
#
# Disc length: 3661 seconds
#
# Revision: 7
# Processed by: cddbd v1.5.2PL0 Copyright (c) Steve Scherf et al.
# Submitted via: ExactAudioCopyFreeDBPlugin 1.0
#
DISCID=da0e4b0f
DTITLE=Witherspoon, Jimmy - Ain't Nobody's Business - The Blues Collec
DTITLE=tion 24
DYEAR=1995
DGENRE=Blues
TTITLE0=Good rockin' tonight
TTITLE1=When I been drinkin'
TTITLE2=Big fine girl
TTITLE3=No rollin' blues
TTITLE4=Ain't nobody's business
TTITLE5=Times gettin' tougher than tough
TTITLE6=How long
TTITLE7=Corrine Corrina
TTITLE8=See see rider
TTITLE9=Roll 'em Pete
TTITLE10=Everyday
TTITLE11=I'm gonna move to the outskirts of town
TTITLE12=Kansas City
TTITLE13=Trouble in mind
TTITLE14=St. Louis blues
EXTD=YEAR: 1995
EXTT0=
EXTT1=
EXTT2=
EXTT3=
EXTT4=
EXTT5=
EXTT6=
EXTT7=
EXTT8=
EXTT9=
EXTT10=
EXTT11=
EXTT12=
EXTT13=
EXTT14=
PLAYORDER=
